<svg width="112" height="121" viewBox="0 0 112 121" fill="none" xmlns="http://www.w3.org/2000/svg">
<path d="M52.9539 120.805C42.9571 120.549 33.9428 117.734 25.9108 112.361C17.8831 106.821 11.5705 99.4068 6.973 90.1196C2.54211 80.8367 0.471468 70.5304 0.761085 59.2008C1.05922 47.5379 3.82247 37.2718 9.05082 28.4026C14.2834 19.3666 21.2977 12.377 30.0936 7.43344C39.0603 2.32758 49.0419 -0.0848099 60.0383 0.196289C71.5345 0.490165 81.1278 3.4863 88.818 9.18468C96.5125 14.7164 102.161 22.0298 105.763 31.1249C109.536 40.0575 111.286 49.8555 111.013 60.5186C110.754 70.682 108.86 79.5531 105.331 87.1321C101.803 94.7111 97.2241 101.013 91.5939 106.037C86.1303 111.066 80.0321 114.828 73.2995 117.323C66.5669 119.819 59.785 120.979 52.9539 120.805ZM53.6518 113.07C58.3169 113.189 63.2575 112.315 68.4736 110.448C73.8606 108.418 78.8587 105.295 83.468 101.078C88.2438 96.8653 92.1332 91.4629 95.1359 84.8708C98.3096 78.1164 100.018 69.9907 100.261 60.4938C100.516 50.4971 98.9112 41.5365 95.4459 33.612C92.1472 25.6918 87.3043 19.4827 80.9172 14.9847C74.5343 10.32 67.0942 7.8791 58.597 7.66189C50.5996 7.45745 43.1322 9.35059 36.1946 13.3413C29.257 17.332 23.5222 23.1873 18.9901 30.9074C14.6246 38.6317 12.2992 48.0753 12.0138 59.2383C11.7157 70.9012 13.6325 80.7034 17.7642 88.6449C22.0626 96.5907 27.4929 102.648 34.0551 106.817C40.6217 110.82 47.1539 112.904 53.6518 113.07Z" fill="#A8F9CA"/>
</svg>
