<svg width="138" height="117" viewBox="0 0 138 117" fill="none" xmlns="http://www.w3.org/2000/svg">
<path d="M92.3738 116.732C90.2071 116.732 88.3738 116.649 86.8738 116.482C85.3738 116.482 84.2071 116.399 83.3738 116.232C81.5405 115.899 80.6238 115.399 80.6238 114.732C80.6238 113.732 81.3738 112.899 82.8738 112.232C83.8738 111.566 86.9571 110.982 92.1238 110.482C93.2905 110.316 94.2905 110.066 95.1238 109.732C95.9571 109.399 96.3738 108.482 96.3738 106.982C96.3738 105.316 94.0404 101.149 89.3738 94.4822C87.0404 91.1488 84.1238 87.1488 80.6238 82.4822C77.1238 77.6488 73.1238 72.1488 68.6238 65.9822C66.9571 67.8155 65.2904 69.8988 63.6238 72.2322C61.9571 74.3988 60.2071 76.8155 58.3738 79.4822C54.7071 84.6488 50.7071 90.1488 46.3738 95.9822C44.8738 97.9822 44.1238 99.6488 44.1238 100.982C44.1238 102.649 46.1238 103.482 50.1238 103.482C53.2904 103.482 55.7904 103.566 57.6238 103.732C59.6238 103.732 61.0404 103.816 61.8738 103.982C63.5405 104.482 64.3738 105.316 64.3738 106.482C64.3738 108.649 62.4571 109.732 58.6238 109.732C56.6238 109.732 54.5404 109.732 52.3738 109.732C50.3738 109.732 48.2071 109.649 45.8738 109.482C43.7071 109.316 41.5404 109.232 39.3738 109.232C37.2071 109.232 35.0404 109.232 32.8738 109.232H22.1238C20.4571 109.399 18.8738 109.482 17.3738 109.482C15.8738 109.482 14.5404 109.482 13.3738 109.482C9.70711 109.482 7.87378 108.482 7.87378 106.482C7.87378 104.649 11.2904 103.316 18.1238 102.482C22.4571 101.982 25.8738 101.316 28.3738 100.482C30.8738 99.6488 32.7904 98.3155 34.1238 96.4822C39.4571 89.6488 43.5404 84.2322 46.3738 80.2322C49.3738 76.2322 52.0405 72.6488 54.3738 69.4822C56.7071 66.1488 59.4571 62.3155 62.6238 57.9822L33.1238 16.4822C30.1238 12.4822 27.0404 10.0655 23.8738 9.23218C20.8738 8.39885 16.2904 7.81551 10.1238 7.48218C6.12378 7.14884 3.62378 6.73217 2.62378 6.23216C1.29045 5.73216 0.623779 4.89884 0.623779 3.73218C0.623779 2.39885 2.04045 1.56551 4.87378 1.23218C6.20711 1.06551 8.20711 0.982162 10.8738 0.982162C13.7071 0.815498 17.0404 0.732178 20.8738 0.732178L43.6238 0.732178C47.2904 0.732178 50.2904 0.815498 52.6238 0.982162C55.1238 0.982162 56.9571 1.06551 58.1238 1.23218C60.4571 1.73218 61.6238 2.56551 61.6238 3.73218C61.4571 4.89884 60.6238 5.89885 59.1238 6.73218C57.6238 7.56552 55.7071 7.98218 53.3738 7.98218C51.0404 7.98218 49.0404 7.98218 47.3738 7.98218C45.8738 7.98218 44.7071 8.06551 43.8738 8.23218C42.3738 8.39884 41.6238 9.0655 41.6238 10.2322C41.6238 10.5655 43.9571 14.4822 48.6238 21.9822C53.2904 29.3155 59.9571 38.6488 68.6238 49.9822L84.1238 27.9822C85.9571 25.4822 87.5404 23.3155 88.8738 21.4822C90.2071 19.4822 90.8738 17.9822 90.8738 16.9822C90.8738 15.6488 90.3738 14.8988 89.3738 14.7322C88.8738 14.5655 87.9571 14.4822 86.6238 14.4822C85.4571 14.4822 83.9571 14.3988 82.1238 14.2322C80.4571 14.0655 79.0404 13.8988 77.8738 13.7322C76.7071 13.5655 75.7904 13.3988 75.1238 13.2322C73.7904 12.8988 73.1238 12.0655 73.1238 10.7322C73.1238 9.56551 74.1238 8.89884 76.1238 8.73218C77.1238 8.56551 78.6238 8.48216 80.6238 8.48216C82.6238 8.3155 85.0404 8.23218 87.8738 8.23218L127.874 8.23218C131.707 8.23218 133.624 9.23218 133.624 11.2322C133.624 13.3988 131.79 14.4822 128.124 14.4822C121.957 14.4822 117.707 14.5655 115.374 14.7322C113.04 14.8988 110.79 15.3988 108.624 16.2322C105.79 17.2322 102.957 19.3988 100.124 22.7322C94.2905 30.0655 89.5405 36.3155 85.8738 41.4822C82.3738 46.4822 78.5404 51.8988 74.3738 57.7322C86.2071 73.8988 95.3738 86.3155 101.874 94.9822C108.54 103.649 112.957 108.399 115.124 109.232C117.79 110.066 120.124 110.566 122.124 110.732C124.29 111.066 126.874 111.316 129.874 111.482C134.707 111.816 137.124 112.816 137.124 114.482C137.124 115.316 136.374 115.899 134.874 116.232C134.207 116.399 133.374 116.482 132.374 116.482C131.374 116.649 130.207 116.732 128.874 116.732C126.707 116.732 124.707 116.732 122.874 116.732C121.207 116.732 119.707 116.649 118.374 116.482H100.374C99.2071 116.649 97.8738 116.732 96.3738 116.732C95.0404 116.732 93.7071 116.732 92.3738 116.732Z" fill="#F8B7CA"/>
</svg>
